<svg xmlns="http://www.w3.org/2000/svg" width="18.502" height="18.502" viewBox="0 0 18.502 18.502">
  <path id="Close_Square_2" data-name="Close Square_2" d="M15.261,2H7.241C4.1,2,2,4.251,2,7.473v7.556C2,18.255,4.092,20.5,7.241,20.5H15.26c3.15,0,5.243-2.247,5.243-5.473V7.473C20.5,4.248,18.41,2,15.261,2ZM7.241,3.388h8.02c2.359,0,3.854,1.605,3.854,4.085v7.556c0,2.48-1.495,4.085-3.855,4.085H7.241c-2.359,0-3.853-1.6-3.853-4.085V7.473C3.388,5,4.887,3.388,7.241,3.388Zm1.3,5.146a.694.694,0,0,1,.9-.067l.078.067,1.728,1.728,1.726-1.726a.694.694,0,0,1,1.048.9l-.067.078-1.726,1.726,1.728,1.728a.694.694,0,0,1-.9,1.048l-.078-.067L11.25,12.224,9.525,13.95a.694.694,0,0,1-1.048-.9l.067-.078,1.726-1.726L8.541,9.515A.694.694,0,0,1,8.541,8.533Z" transform="translate(-2 -2)" fill="#fe2a2a" fill-rule="evenodd"/>
</svg>
