<svg xmlns="http://www.w3.org/2000/svg" width="19" height="19.003" viewBox="0 0 19 19.003">
  <g id="Iconly_Light-outline_Discount" data-name="Iconly/Light-outline/Discount" transform="translate(-2 -1.997)">
    <g id="Discount" transform="translate(2 1.997)">
      <path id="Discount_2" d="M9.472,2.843a2.856,2.856,0,0,1,3.882-.163l.173.162.683.683a1.432,1.432,0,0,0,.869.41l.141.007H16.2a2.862,2.862,0,0,1,2.857,2.693l0,.168v.976a1.435,1.435,0,0,0,.321.906l.094.1.683.683a2.861,2.861,0,0,1,.138,3.909l-.129.138-.692.692a1.43,1.43,0,0,0-.409.868l-.007.141V16.2a2.861,2.861,0,0,1-2.693,2.856l-.168,0h-.977a1.433,1.433,0,0,0-.905.322l-.1.094-.682.681a2.86,2.86,0,0,1-3.91.139l-.146-.137-.681-.681a1.439,1.439,0,0,0-.871-.411l-.141-.007H6.8a2.861,2.861,0,0,1-2.856-2.692l0-.168V15.22a1.432,1.432,0,0,0-.322-.9l-.094-.1-.681-.682a2.861,2.861,0,0,1-.139-3.909l.129-.138.69-.691a1.437,1.437,0,0,0,.411-.871l.007-.141V6.8l0-.168A2.862,2.862,0,0,1,6.635,3.946l.168,0H7.78a1.436,1.436,0,0,0,.9-.321l.1-.094ZM12.55,3.878l-.038-.035A1.436,1.436,0,0,0,10.59,3.75l-.109.1L9.8,4.535a2.861,2.861,0,0,1-1.827.825l-.188.006H6.8a1.437,1.437,0,0,0-1.43,1.306L5.367,6.8v.976a2.86,2.86,0,0,1-.7,1.88L4.534,9.8l-.691.692a1.435,1.435,0,0,0-.091,1.923l.1.109.683.684a2.856,2.856,0,0,1,.827,1.828l.006.188V16.2a1.436,1.436,0,0,0,1.3,1.43l.131.006H7.78a2.862,2.862,0,0,1,1.879.705l.138.129.687.687a1.437,1.437,0,0,0,1.926.095l.109-.1.685-.684a2.859,2.859,0,0,1,1.828-.826l.188-.006H16.2a1.436,1.436,0,0,0,1.431-1.3l.006-.131V15.22a2.857,2.857,0,0,1,.7-1.879l.129-.138.691-.691a1.436,1.436,0,0,0,.092-1.923l-.1-.109-.686-.686a2.86,2.86,0,0,1-.825-1.828l-.006-.188V6.8a1.437,1.437,0,0,0-1.306-1.431L16.2,5.366h-.977a2.859,2.859,0,0,1-1.879-.7L13.2,4.534Zm.885,10.569a.711.711,0,0,0,1.007,0,.809.809,0,0,0,.162-.238.82.82,0,0,0,.048-.266.883.883,0,0,0-.048-.276.766.766,0,0,0-.162-.228.71.71,0,0,0-1.159.228.681.681,0,0,0-.057.276.634.634,0,0,0,.057.266A.78.78,0,0,0,13.435,14.447ZM9.055,9.774a.638.638,0,0,1-.266-.058.777.777,0,0,1-.238-.151A.915.915,0,0,1,8.4,9.327a.641.641,0,0,1-.057-.266A.678.678,0,0,1,8.4,8.786a.64.64,0,0,1,.152-.228.733.733,0,0,1,1.007,0,.71.71,0,0,1,.209.5.633.633,0,0,1-.048.266.956.956,0,0,1-.162.238.734.734,0,0,1-.228.151A.682.682,0,0,1,9.055,9.774Zm5.39-1.219a.712.712,0,0,0-1.008,0L8.555,13.437l-.069.08a.713.713,0,0,0,1.077.928l4.883-4.883.069-.08A.713.713,0,0,0,14.445,8.554Z" transform="translate(-2 -1.997)" fill="#37383c" fill-rule="evenodd"/>
    </g>
  </g>
</svg>
