<svg xmlns="http://www.w3.org/2000/svg" width="145.359" height="139.4" viewBox="0 0 145.359 139.4">
  <g id="Group_3621" data-name="Group 3621" transform="translate(3.5 3.5)">
    <path id="Path_61" data-name="Path 61" d="M178.24,227.677a51.15,51.15,0,0,0,71.72-.024m-7.288-79.029a51.174,51.174,0,0,0-57.156-.021m28.575,71.511a28.909,28.909,0,1,1,.013,0Z" transform="translate(-145.743 -126.901)" fill="none" stroke="#2c2c2c" stroke-linecap="round" stroke-miterlimit="10" stroke-width="7"/>
    <path id="Path_63" data-name="Path 63" d="M55,70.14v37.685a5.276,5.276,0,0,0,.532,2.335,19.907,19.907,0,0,0,5.679,6.818,5.664,5.664,0,0,1,2.3,4.447V193.15a4.942,4.942,0,0,0,.085.944c.336,1.7,1.814,7.384,8.882,7.384" transform="translate(-55 -69.078)" fill="none" stroke="#2c2c2c" stroke-linecap="round" stroke-miterlimit="10" stroke-width="7"/>
    <path id="Path_64" data-name="Path 64" d="M130.325,70.14v37.685a5.236,5.236,0,0,1-.535,2.335,19.836,19.836,0,0,1-5.679,6.818,5.672,5.672,0,0,0-2.3,4.447V193.15a4.937,4.937,0,0,1-.082.944c-.336,1.7-1.872,7.384-8.885,7.384" transform="translate(-95.349 -69.078)" fill="none" stroke="#2c2c2c" stroke-linecap="round" stroke-miterlimit="10" stroke-width="7"/>
    <line id="Line_3" data-name="Line 3" y2="34.369" transform="translate(17.492 1.061)" fill="none" stroke="#2c2c2c" stroke-linecap="round" stroke-miterlimit="10" stroke-width="7"/>
    <path id="Path_65" data-name="Path 65" d="M456.189,91.3c0,8.134-3.063,15.329-7.775,19.821a7.5,7.5,0,0,0-2.489,5.374V190.68a4.21,4.21,0,0,1-.091.942,8.571,8.571,0,0,1-8.867,7.393c-7.01,0-8.531-5.617-8.888-7.354l-.1-.97V116.513a7.509,7.509,0,0,0-2.486-5.374c-4.709-4.5-7.757-11.7-7.757-19.821,0-13.632,8.595-24.688,19.227-24.688S456.189,77.666,456.189,91.3Z" transform="translate(-317.83 -66.63)" fill="none" stroke="#2c2c2c" stroke-linecap="round" stroke-miterlimit="10" stroke-width="7"/>
  </g>
</svg>
