<svg xmlns="http://www.w3.org/2000/svg" width="153.095" height="142.53" viewBox="0 0 153.095 142.53">
  <g id="Group_3622" data-name="Group 3622" transform="translate(-19.483 -24.708)">
    <text id="_4" data-name="4" transform="translate(125.973 72.472)" fill="#2c2c2c" font-size="39" font-family="Roboto-Bold, Roboto" font-weight="700" letter-spacing="0.05em"><tspan x="0" y="0">4</tspan></text>
    <path id="Path_66" data-name="Path 66" d="M316.3,335.538v9.816a14.967,14.967,0,1,0,29.934,0l0-56.614" transform="translate(-214.983 -196.584)" fill="none" stroke="#2c2c2c" stroke-linecap="round" stroke-linejoin="round" stroke-width="7"/>
    <path id="Path_67" data-name="Path 67" d="M137.97,240.055V155.62h62.265" transform="translate(-93.713 -106.058)" fill="none" stroke="#2c2c2c" stroke-linecap="round" stroke-linejoin="round" stroke-width="7"/>
    <path id="Path_68" data-name="Path 68" d="M149.813,426.947v10.216a14.97,14.97,0,0,0,14.965,14.968H86.445A14.971,14.971,0,0,1,71.48,437.163v-13.4" transform="translate(-48.497 -288.403)" fill="none" stroke="#2c2c2c" stroke-linecap="round" stroke-linejoin="round" stroke-width="7"/>
    <path id="Path_69" data-name="Path 69" d="M71.48,419.05c5.6,0,5.6,4.851,11.2,4.851s5.6-4.851,11.2-4.851,5.6,4.851,11.2,4.851,5.593-4.851,11.2-4.851,5.6,4.851,11.2,4.851,5.593-4.851,11.2-4.851,5.6,4.851,11.2,4.851" transform="translate(-48.497 -285.2)" fill="none" stroke="#2c2c2c" stroke-linecap="round" stroke-linejoin="round" stroke-width="7"/>
    <line id="Line_4" data-name="Line 4" x2="45.006" transform="translate(65.25 76.436)" fill="none" stroke="#2c2c2c" stroke-linecap="round" stroke-linejoin="round" stroke-width="7"/>
    <line id="Line_5" data-name="Line 5" x2="45.006" transform="translate(65.25 96.555)" fill="none" stroke="#2c2c2c" stroke-linecap="round" stroke-linejoin="round" stroke-width="7"/>
    <line id="Line_6" data-name="Line 6" x2="45.006" transform="translate(65.25 116.675)" fill="none" stroke="#2c2c2c" stroke-linecap="round" stroke-linejoin="round" stroke-width="7"/>
    <path id="CIRCULO_CANTIDAD" data-name="CIRCULO CANTIDAD" d="M391.107,121.1A32.223,32.223,0,1,1,358.888,88.88,32.225,32.225,0,0,1,391.107,121.1Z" transform="translate(-222.029 -60.672)" fill="none" stroke="#2c2c2c" stroke-linecap="round" stroke-linejoin="round" stroke-width="7"/>
  </g>
</svg>
