<svg xmlns="http://www.w3.org/2000/svg" width="146.051" height="134.729" viewBox="0 0 146.051 134.729">
  <g id="ICONO_VOLVER" data-name="ICONO VOLVER" transform="translate(-17.098 -26.799)">
    <path id="ICONO_VOLVER-2" data-name="ICONO VOLVER" d="M156.951,157.906c-4.926,2.271-12.864-26.773-38.536-42.345-14.377-8.714-29.776-10.467-43.249-9.547v36.254a2.716,2.716,0,0,1-1.506,2.494A2.269,2.269,0,0,1,71,144.175L21.048,88.883a2.192,2.192,0,0,1,0-2.886L71.012,31.219a2.268,2.268,0,0,1,2.656-.574,2.717,2.717,0,0,1,1.5,2.494V57.8c13.661,1.615,47.78,8.116,68.187,38.952C160.189,122.181,162,155.58,156.951,157.906Z" transform="translate(0.092 -0.034)" fill="rgba(0,0,0,0)" stroke="#2c2c2c" stroke-linecap="round" stroke-linejoin="round" stroke-width="7"/>
  </g>
</svg>
